<svg xmlns="http://www.w3.org/2000/svg" width="900" height="230" viewBox="0 0 900 230" role="img" aria-label="Commonplace — Team Project Board"><style>@keyframes trace{0%{stroke-dashoffset:180}100%{stroke-dashoffset:0}}@keyframes glow{0%,100%{opacity:.4}50%{opacity:1}}.trend{stroke-dasharray:180;animation:trace 2.8s ease-in-out infinite alternate}.node{animation:glow 1.8s ease-in-out infinite alternate}@media(prefers-reduced-motion:reduce){.trend,.node{animation:none;stroke-dashoffset:0;opacity:1}}</style><rect width="900" height="230" rx="18" fill="#eff4f4"/><rect x="1" y="1" width="898" height="228" rx="17" fill="none" stroke="#dce9e9"/><circle cx="754" cy="40" r="134" fill="#dce9e9"/><text x="48" y="55" font-family="Arial,sans-serif" font-size="10" font-weight="700" letter-spacing="2" fill="#4f6e75">PORTFOLIO SYSTEMS · 05</text><text x="48" y="111" font-family="Georgia,serif" font-size="31" fill="#303630">Team Project Board</text><text x="49" y="143" font-family="Arial,sans-serif" font-size="14" fill="#69736a">A collaborative planning board that makes ownership and the next action clear.</text><rect x="49" y="177" width="280" height="6" rx="3" fill="#dce9e9"/><rect x="49" y="177" width="108" height="6" rx="3" fill="#4f6e75"/><rect x="350" y="41" width="498" height="150" rx="13" fill="#fff" stroke="#dce9e9"/><path d="M380 80H818M380 111H818M380 142H818" stroke="#edf0ec"/><path class="trend" d="M390 157L454 145L518 150L582 113L646 122L710 86L794 67" fill="none" stroke="#4f6e75" stroke-width="3" stroke-linecap="round"/><circle class="node" cx="794" cy="67" r="6" fill="#4f6e75"/><circle cx="794" cy="67" r="2" fill="#fff"/><text x="380" y="177" font-family="Arial,sans-serif" font-size="9" letter-spacing="1" fill="#929a91">PRODUCT WORKFLOW · ARCHITECTURE · OPERATIONS</text></svg>